<?xml version="1.0" encoding="UTF-8" standalone="no"?>
<!-- Created with Inkscape (http://www.inkscape.org/) -->

<svg
   width="1024"
   height="1024"
   viewBox="0 0 270.93333 270.93333"
   version="1.1"
   id="svg5"
   xml:space="preserve"
   xmlns="http://www.w3.org/2000/svg"
   xmlns:svg="http://www.w3.org/2000/svg"><defs
     id="defs2" /><g
     id="layer1"><circle
       style="fill:#0175bc;stroke-width:32.0173;stroke-linecap:round;stroke-linejoin:round;fill-opacity:1"
       id="path514"
       cx="135.46666"
       cy="135.46666"
       r="118.53333" /><path
       id="use3642"
       d="m 60.302252,189.90618 h 85.843608 c 13.32949,0 20.63405,-1.26505 24.9065,-4.06379 5.28449,-3.307 8.30083,-8.89555 8.30083,-15.48737 0,-7.86773 -4.01647,-14.71941 -10.8092,-18.02715 C 165.00987,150.2959 158.48295,149.28 150.43022,149.28 h -35.83387 c -20.122067,0 -33.215202,-3.55584 -42.016104,-11.15567 -10.061026,-8.89556 -15.86137,-22.59905 -15.86137,-37.34211 0,-21.56334 11.833002,-40.322876 29.198597,-46.426523 7.540899,-2.798891 16.341787,-3.555695 35.971687,-3.555695 h 87.49756 v 30.21063 h -79.46448 c -15.84961,0.258973 -21.99255,0.258973 -27.26917,1.523875 -7.040689,1.77286 -11.321168,8.367789 -11.321168,17.259338 0,7.619625 3.534248,13.703475 9.560958,16.503265 5.04041,2.28082 13.93984,2.78876 26.02093,2.78876 h 26.9148 c 24.65053,0 37.99949,3.80468 47.8047,13.96336 7.54075,7.60788 12.58117,22.59888 12.58117,37.31056 0,18.02713 -8.30873,34.79026 -21.38221,42.92187 -8.30083,5.31991 -18.86193,6.85167 -43.78808,6.85167 H 60.286476 v -30.19887 z"
       style="fill:#ffffff;fill-opacity:1;fill-rule:nonzero;stroke-width:3.93778" /><path
       style="fill:#e9d502;fill-opacity:1;stroke:#000000;stroke-width:4.42817;stroke-linecap:round;stroke-linejoin:bevel;stroke-dasharray:none;stroke-opacity:1"
       id="path7568"
       d="m -17.711902,-7.5315245 -68.014306,-3e-7 34.007153,-58.9021162 z"
       transform="matrix(1.4140726,0,0,1.4140726,280.56783,252.14076)" /><text
       xml:space="preserve"
       style="font-style:normal;font-variant:normal;font-weight:normal;font-stretch:normal;font-size:67.7333px;line-height:1.25;font-family:'Century Schoolbook';-inkscape-font-specification:'Century Schoolbook';stroke-width:0.264583"
       x="197.21381"
       y="229.99611"
       id="text9802"><tspan
         id="tspan9800"
         style="font-style:normal;font-variant:normal;font-weight:normal;font-stretch:normal;font-size:67.7333px;font-family:'Century Schoolbook';-inkscape-font-specification:'Century Schoolbook';stroke-width:0.264583"
         x="197.21381"
         y="229.99611">!</tspan></text></g></svg>
